<svg width="20" height="20" viewBox="0 0 20 20" fill="none" xmlns="http://www.w3.org/2000/svg">
<path d="M18.0938 10.2011L18.6701 9.54211L18.0938 8.88309L16.748 7.34434L16.9355 5.30932L17.0161 4.43561L16.1604 4.24126L14.172 3.78958L13.13 2.02549L12.6822 1.26728L11.8731 1.61473L9.99898 2.41949L8.12487 1.61473L7.31686 1.26776L6.86862 2.02431L5.82759 3.78138L3.8401 4.22733L2.98191 4.41989L3.06239 5.29572L3.25012 7.3386L1.90304 8.88443L1.32889 9.54329L1.90421 10.2011L3.25002 11.74L3.06239 13.7818L2.98212 14.6553L3.83753 14.8496L5.82679 15.3015L6.86862 17.0599L7.31798 17.8184L8.12715 17.4685L10.0003 16.6586L11.8731 17.4628L12.6811 17.8098L13.1293 17.0532L14.1712 15.2948L16.1604 14.843L17.0161 14.6486L16.9355 13.7749L16.748 11.7399L18.0938 10.2011ZM12.6911 7.78435L12.689 7.78639L12.6911 7.78435Z" fill="#2389E8" stroke="white" stroke-width="2"/>
</svg>
