<svg width="16" height="16" viewBox="0 0 16 16" fill="none" xmlns="http://www.w3.org/2000/svg">
<g clip-path="url(#clip0_25_1000)">
<path d="M8 6.00008C9.47333 6.00008 10.6667 4.80675 10.6667 3.33341C10.6667 1.86008 9.47333 0.666748 8 0.666748C6.52667 0.666748 5.33333 1.86008 5.33333 3.33341C5.33333 4.80675 6.52667 6.00008 8 6.00008ZM8 2.00008C8.73333 2.00008 9.33333 2.60008 9.33333 3.33341C9.33333 4.06675 8.73333 4.66675 8 4.66675C7.26667 4.66675 6.66667 4.06675 6.66667 3.33341C6.66667 2.60008 7.26667 2.00008 8 2.00008ZM8 7.70008C6.42667 6.23341 4.32 5.33341 2 5.33341V12.6667C4.32 12.6667 6.42667 13.5667 8 15.0334C9.57333 13.5734 11.68 12.6667 14 12.6667V5.33341C11.68 5.33341 9.57333 6.23341 8 7.70008ZM12.6667 11.4201C10.98 11.6467 9.38 12.2867 8 13.3001C6.62667 12.2867 5.02 11.6401 3.33333 11.4134V6.78008C4.73333 7.03341 6.03333 7.68008 7.09333 8.66675L8 9.52008L8.90667 8.67341C9.96667 7.68675 11.2667 7.04008 12.6667 6.78675V11.4201Z" fill="black"/>
</g>
<defs>
<clipPath id="clip0_25_1000">
<rect width="16" height="16" fill="white"/>
</clipPath>
</defs>
</svg>
