<svg width="24" height="24" viewBox="0 0 24 24" fill="none" xmlns="http://www.w3.org/2000/svg">
<g clip-path="url(#clip0_10_596)">
<path opacity="0.3" d="M12 4C7.58 4 4 7.58 4 12C4 13.95 4.7 15.73 5.86 17.12C7.55 15.8 9.68 15 12 15C14.32 15 16.45 15.8 18.14 17.12C19.3 15.73 20 13.95 20 12C20 7.58 16.42 4 12 4ZM12 13C10.07 13 8.5 11.43 8.5 9.5C8.5 7.57 10.07 6 12 6C13.93 6 15.5 7.57 15.5 9.5C15.5 11.43 13.93 13 12 13Z" fill="white"/>
<path d="M12 2C6.48 2 2 6.48 2 12C2 17.52 6.48 22 12 22C17.52 22 22 17.52 22 12C22 6.48 17.52 2 12 2ZM18.14 17.12C16.45 15.8 14.32 15 12 15C9.68 15 7.55 15.8 5.86 17.12C4.7 15.73 4 13.95 4 12C4 7.58 7.58 4 12 4C16.42 4 20 7.58 20 12C20 13.95 19.3 15.73 18.14 17.12Z" fill="white"/>
<circle cx="12" cy="9.5" r="3.5" fill="white"/>
<path fill-rule="evenodd" clip-rule="evenodd" d="M18.3026 17.1152C16.8351 18.8779 14.6242 20 12.1513 20C9.67834 20 7.46746 18.8779 6 17.1152C7.69646 15.7898 9.83164 15 12.1513 15C14.4709 15 16.6061 15.7898 18.3026 17.1152Z" fill="white"/>
</g>
<defs>
<clipPath id="clip0_10_596">
<rect width="24" height="24" fill="white"/>
</clipPath>
</defs>
</svg>
