<svg width="16" height="16" viewBox="0 0 16 16" fill="none" xmlns="http://www.w3.org/2000/svg">
<g clip-path="url(#clip0_39_2185)">
<path d="M14 6.66671C13.2667 6.66671 12.6667 7.26671 12.6667 8.00004V10H3.33335V8.00004C3.33335 7.26671 2.73335 6.66671 2.00002 6.66671C1.26669 6.66671 0.666687 7.26671 0.666687 8.00004V11.3334C0.666687 12.0667 1.26669 12.6667 2.00002 12.6667H14C14.7334 12.6667 15.3334 12.0667 15.3334 11.3334V8.00004C15.3334 7.26671 14.7334 6.66671 14 6.66671ZM12 3.33337H4.00002C3.26669 3.33337 2.66669 3.93337 2.66669 4.66671V6.10004C3.44002 6.37337 4.00002 7.10671 4.00002 7.98004V9.33337H12V7.98004C12 7.11337 12.56 6.38004 13.3334 6.10004V4.66671C13.3334 3.93337 12.7334 3.33337 12 3.33337Z" fill="#333333"/>
</g>
<defs>
<clipPath id="clip0_39_2185">
<rect width="16" height="16" fill="white"/>
</clipPath>
</defs>
</svg>
