<svg width="16" height="16" viewBox="0 0 16 16" fill="none" xmlns="http://www.w3.org/2000/svg">
<g clip-path="url(#clip0_25_1064)">
<path d="M2 9.33333C2 10.2 2.56 10.9333 3.33333 11.2133V13.3333H2V14.6667H6V13.3333H4.66667V11.2133C5.44 10.9333 6 10.2 6 9.33333V4H2V9.33333ZM3.33333 5.33333H4.66667V7.33333H3.33333V5.33333ZM3.33333 8.66667H4.66667V9.33333C4.66667 9.7 4.36667 10 4 10C3.63333 10 3.33333 9.7 3.33333 9.33333V8.66667Z" fill="black"/>
<path d="M13.76 5.69325L13.12 5.47992C12.8467 5.38659 12.6667 5.13325 12.6667 4.84659V1.99992C12.6667 1.63325 12.3667 1.33325 12 1.33325H10C9.63334 1.33325 9.33334 1.63325 9.33334 1.99992V4.85325C9.33334 5.13992 9.15334 5.39325 8.88001 5.48658L8.24001 5.69992C7.70001 5.88659 7.33334 6.39325 7.33334 6.96658V13.3333C7.33334 14.0666 7.93334 14.6666 8.66668 14.6666H13.3333C14.0667 14.6666 14.6667 14.0666 14.6667 13.3333V6.95992C14.6667 6.38658 14.3 5.87992 13.76 5.69325ZM10.6667 2.66659H11.3333V3.33325H10.6667V2.66659ZM13.3333 13.3333H8.66668V11.9999H13.3333V13.3333ZM13.3333 10.6666H8.66668V9.33325H13.3333V10.6666ZM13.3333 7.99992H8.66668V6.95992L9.30001 6.74658C10.12 6.47992 10.6667 5.71325 10.6667 4.85325V4.66658H11.3333V4.85325C11.3333 5.71325 11.88 6.47992 12.7 6.75325L13.3333 6.95992V7.99992Z" fill="black"/>
</g>
<defs>
<clipPath id="clip0_25_1064">
<rect width="16" height="16" fill="white"/>
</clipPath>
</defs>
</svg>
