<svg width="16" height="16" viewBox="0 0 16 16" fill="none" xmlns="http://www.w3.org/2000/svg">
<g clip-path="url(#clip0_25_1043)">
<path d="M8.00001 1.33325C4.32001 1.33325 1.33334 4.31992 1.33334 7.99992C1.33334 11.6799 4.32001 14.6666 8.00001 14.6666C11.68 14.6666 14.6667 11.6799 14.6667 7.99992C14.6667 4.31992 11.68 1.33325 8.00001 1.33325ZM4.90001 12.3333C5.77334 11.7066 6.84001 11.3333 8.00001 11.3333C9.16001 11.3333 10.2267 11.7066 11.1 12.3333C10.2267 12.9599 9.16001 13.3333 8.00001 13.3333C6.84001 13.3333 5.77334 12.9599 4.90001 12.3333ZM12.0933 11.4133C10.9667 10.5333 9.54668 9.99992 8.00001 9.99992C6.45334 9.99992 5.03334 10.5333 3.90668 11.4133C3.13334 10.4866 2.66668 9.29992 2.66668 7.99992C2.66668 5.05325 5.05334 2.66659 8.00001 2.66659C10.9467 2.66659 13.3333 5.05325 13.3333 7.99992C13.3333 9.29992 12.8667 10.4866 12.0933 11.4133Z" fill="black"/>
<path d="M8.00002 4C6.71335 4 5.66669 5.04667 5.66669 6.33333C5.66669 7.62 6.71335 8.66667 8.00002 8.66667C9.28669 8.66667 10.3334 7.62 10.3334 6.33333C10.3334 5.04667 9.28669 4 8.00002 4ZM8.00002 7.33333C7.44669 7.33333 7.00002 6.88667 7.00002 6.33333C7.00002 5.78 7.44669 5.33333 8.00002 5.33333C8.55335 5.33333 9.00002 5.78 9.00002 6.33333C9.00002 6.88667 8.55335 7.33333 8.00002 7.33333Z" fill="black"/>
</g>
<defs>
<clipPath id="clip0_25_1043">
<rect width="16" height="16" fill="white"/>
</clipPath>
</defs>
</svg>
