<svg width="16" height="16" viewBox="0 0 16 16" fill="none" xmlns="http://www.w3.org/2000/svg">
<g clip-path="url(#clip0_25_1018)">
<path d="M9.33334 3.99992V2.66659H6.66668V3.99992H9.33334ZM2.66668 5.33325V12.6666H13.3333V5.33325H2.66668ZM13.3333 3.99992C14.0733 3.99992 14.6667 4.59325 14.6667 5.33325V12.6666C14.6667 13.4066 14.0733 13.9999 13.3333 13.9999H2.66668C1.92668 13.9999 1.33334 13.4066 1.33334 12.6666L1.34001 5.33325C1.34001 4.59325 1.92668 3.99992 2.66668 3.99992H5.33334V2.66659C5.33334 1.92659 5.92668 1.33325 6.66668 1.33325H9.33334C10.0733 1.33325 10.6667 1.92659 10.6667 2.66659V3.99992H13.3333Z" fill="black"/>
</g>
<defs>
<clipPath id="clip0_25_1018">
<rect width="16" height="16" fill="white"/>
</clipPath>
</defs>
</svg>
