<svg width="16" height="16" viewBox="0 0 16 16" fill="none" xmlns="http://www.w3.org/2000/svg">
<g clip-path="url(#clip0_25_1110)">
<path d="M8.00001 1.33325C4.32001 1.33325 1.33334 4.31992 1.33334 7.99992C1.33334 11.6799 4.32001 14.6666 8.00001 14.6666C11.68 14.6666 14.6667 11.6799 14.6667 7.99992C14.6667 4.31992 11.68 1.33325 8.00001 1.33325ZM2.66668 7.99992C2.66668 7.59325 2.72001 7.19325 2.80668 6.81325L5.99334 9.99992V10.6666C5.99334 11.3999 6.59334 11.9999 7.32668 11.9999V13.2866C4.70668 12.9533 2.66668 10.7133 2.66668 7.99992ZM11.9267 11.5999C11.7533 11.0599 11.26 10.6666 10.66 10.6666H9.99334V8.66658C9.99334 8.29992 9.69334 7.99992 9.32668 7.99992H5.32668V6.66658H6.66001C7.02668 6.66658 7.32668 6.36658 7.32668 5.99992V4.66658H8.66001C9.39334 4.66658 9.99334 4.06659 9.99334 3.33325V3.05992C11.9467 3.84659 13.3333 5.76658 13.3333 7.99992C13.3333 9.38658 12.7933 10.6533 11.9267 11.5999Z" fill="black"/>
</g>
<defs>
<clipPath id="clip0_25_1110">
<rect width="16" height="16" fill="white"/>
</clipPath>
</defs>
</svg>
