<svg width="16" height="16" viewBox="0 0 16 16" fill="none" xmlns="http://www.w3.org/2000/svg">
<g clip-path="url(#clip0_25_1106)">
<path d="M12 10.6666H13V12.6666H12V10.6666ZM1.33334 10.6666H11.3333V12.6666H1.33334V10.6666ZM10.6867 6.79992H9.66668C8.98668 6.79992 8.43334 6.14658 8.43334 5.46658C8.43334 4.78658 8.98668 4.29992 9.66668 4.29992V3.29992C8.43334 3.29992 7.43334 4.29992 7.43334 5.53325C7.43334 6.76658 8.43334 7.76658 9.66668 7.76658H10.6867C11.3867 7.76658 12 8.25992 12 9.13325V9.99992H13V8.90658C13 7.69992 11.9333 6.79992 10.6867 6.79992ZM13.6667 10.6666H14.6667V12.6666H13.6667V10.6666ZM12.5667 5.15325C12.98 4.74659 13.2333 4.18658 13.2333 3.56659C13.2333 2.33325 12.2333 1.33325 11 1.33325V2.33325C11.68 2.33325 12.2333 2.88659 12.2333 3.56659C12.2333 4.24659 11.68 4.79992 11 4.79992V5.79992C12.4933 5.79992 13.6667 7.01992 13.6667 8.51325V9.99992H14.6667V8.50659C14.6667 7.02659 13.8133 5.74658 12.5667 5.15325Z" fill="black"/>
</g>
<defs>
<clipPath id="clip0_25_1106">
<rect width="16" height="16" fill="white"/>
</clipPath>
</defs>
</svg>
