<svg width="44" height="44" viewBox="0 0 44 44" fill="none" xmlns="http://www.w3.org/2000/svg">
<g clip-path="url(#clip0_34_1485)">
<g filter="url(#filter0_f_34_1485)">
<ellipse cx="22" cy="40" rx="12" ry="1" fill="black"/>
</g>
<path d="M22.0002 3.66667C14.3002 3.66667 7.3335 9.57 7.3335 18.7C7.3335 24.53 11.8252 31.3867 20.7902 39.2883C21.4868 39.8933 22.5318 39.8933 23.2285 39.2883C32.1752 31.3867 36.6668 24.53 36.6668 18.7C36.6668 9.57 29.7002 3.66667 22.0002 3.66667ZM22.0002 22C19.9835 22 18.3335 20.35 18.3335 18.3333C18.3335 16.3167 19.9835 14.6667 22.0002 14.6667C24.0168 14.6667 25.6668 16.3167 25.6668 18.3333C25.6668 20.35 24.0168 22 22.0002 22Z" fill="#5D5FEF"/>
</g>
<defs>
<filter id="filter0_f_34_1485" x="6" y="35" width="32" height="10" filterUnits="userSpaceOnUse" color-interpolation-filters="sRGB">
<feFlood flood-opacity="0" result="BackgroundImageFix"/>
<feBlend mode="normal" in="SourceGraphic" in2="BackgroundImageFix" result="shape"/>
<feGaussianBlur stdDeviation="2" result="effect1_foregroundBlur_34_1485"/>
</filter>
<clipPath id="clip0_34_1485">
<rect width="44" height="44" fill="white"/>
</clipPath>
</defs>
</svg>
