<svg width="16" height="16" viewBox="0 0 16 16" fill="none" xmlns="http://www.w3.org/2000/svg">
<g clip-path="url(#clip0_41_2262)">
<path d="M10.6667 4.00004V8.00004C10.6667 8.73337 11.2667 9.33337 12 9.33337H12.6667V14C12.6667 14.3667 12.9667 14.6667 13.3333 14.6667C13.7 14.6667 14 14.3667 14 14V2.08671C14 1.65337 13.5933 1.33337 13.1733 1.43337C11.7333 1.78671 10.6667 3.00671 10.6667 4.00004ZM7.33333 6.00004H6V2.00004C6 1.63337 5.7 1.33337 5.33333 1.33337C4.96667 1.33337 4.66667 1.63337 4.66667 2.00004V6.00004H3.33333V2.00004C3.33333 1.63337 3.03333 1.33337 2.66667 1.33337C2.3 1.33337 2 1.63337 2 2.00004V6.00004C2 7.47337 3.19333 8.66671 4.66667 8.66671V14C4.66667 14.3667 4.96667 14.6667 5.33333 14.6667C5.7 14.6667 6 14.3667 6 14V8.66671C7.47333 8.66671 8.66667 7.47337 8.66667 6.00004V2.00004C8.66667 1.63337 8.36667 1.33337 8 1.33337C7.63333 1.33337 7.33333 1.63337 7.33333 2.00004V6.00004Z" fill="#333333"/>
</g>
<defs>
<clipPath id="clip0_41_2262">
<rect width="16" height="16" fill="white"/>
</clipPath>
</defs>
</svg>
