<svg width="80" height="91" viewBox="0 0 80 91" fill="none" xmlns="http://www.w3.org/2000/svg">
<path d="M79.1685 61.5563L76.0173 46.9597H73.7723V38.2017C73.7723 33.8708 71.0409 30.2742 67.4699 29.575V26.2543C68.9333 25.65 69.9909 24.0444 69.9909 22.1439C69.9909 20.2434 68.9333 18.6378 67.4699 18.0335V14.847H64.949V18.0349C63.4855 18.6392 62.428 20.2449 62.428 22.1453C62.428 24.0458 63.4855 25.6515 64.949 26.2558V29.5765C61.378 30.2742 58.6466 33.8708 58.6466 38.2031V46.9611H56.1256V39.6628C56.1256 31.785 51.9572 25.0165 46.0417 22.1512V19.226C46.0417 16.8117 44.3451 14.847 42.2603 14.847H40.9998V11.6591C42.4632 11.0548 43.5208 9.44916 43.5208 7.54868C43.5208 5.64819 42.4632 4.04256 40.9998 3.43826V0.250344H38.4788V3.43826C37.0154 4.04256 35.9579 5.64819 35.9579 7.54868C35.9579 9.44916 37.0154 11.0548 38.4788 11.6591V14.847H37.2183C35.1335 14.847 33.4369 16.8117 33.4369 19.226V22.1497C27.5215 25.015 23.353 31.7835 23.353 39.6613V46.9597H20.8321V38.2017C20.8321 33.8708 18.1006 30.2742 14.5297 29.575V26.2543C15.9931 25.65 17.0506 24.0444 17.0506 22.1439C17.0506 20.2434 15.9931 18.6378 14.5297 18.0335V14.847H12.0087V18.0349C10.5453 18.6392 9.48772 20.2449 9.48772 22.1453C9.48772 24.0458 10.5453 25.6515 12.0087 26.2558V29.5765C8.43774 30.2742 5.70628 33.8708 5.70628 38.2017V46.9597H3.46136L0.310149 61.5563H3.18531V90.7497H76.2933V61.5563H79.1685ZM39.7393 6.08901C40.4351 6.08901 40.9998 6.7444 40.9998 7.54868C40.9998 8.35295 40.4351 9.00834 39.7393 9.00834C39.0435 9.00834 38.4788 8.35295 38.4788 7.54868C38.4788 6.7444 39.0435 6.08901 39.7393 6.08901ZM75.9391 58.637H55.5949L48.5728 49.879H74.0484L75.9391 58.637ZM53.6046 87.8303H51.0837V64.4757H53.6046V87.8303ZM43.5208 87.8303H35.9579V79.0723H43.5208V87.8303ZM33.4369 76.153V87.8303H30.9159V73.2337H48.5627V87.8303H46.0417V76.153H33.4369ZM38.5444 44.6446C39.1595 43.8768 40.3191 43.8768 40.9342 44.6446L54.4958 61.5563H50.3891L39.7393 47.6807L29.0895 61.5563H24.9828L38.5444 44.6446ZM48.5627 70.3143H43.5208V64.4757H48.5627V70.3143ZM32.4625 61.5563L39.7393 52.0758L47.0161 61.5563H32.4625ZM30.9159 64.4757H35.9579V70.3143H30.9159V64.4757ZM38.4788 64.4757H40.9998V70.3143H38.4788V64.4757ZM25.874 64.4757H28.395V87.8303H25.874V64.4757ZM66.2094 20.6857C66.9052 20.6857 67.4699 21.3411 67.4699 22.1453C67.4699 22.9496 66.9052 23.605 66.2094 23.605C65.5137 23.605 64.949 22.9496 64.949 22.1453C64.949 21.3411 65.5137 20.6857 66.2094 20.6857ZM66.2094 32.363C68.9901 32.363 71.2514 34.9816 71.2514 38.2017H61.1675C61.1675 34.9816 63.4288 32.363 66.2094 32.363ZM61.1675 41.121H71.2514V46.9597H61.1675V41.121ZM53.0677 35.2823H45.9976C45.7556 30.0319 44.2581 26.3448 42.8792 24.0356C47.7888 25.3595 51.6975 29.702 53.0677 35.2823ZM39.7368 24.1422C40.933 25.631 43.1615 29.1926 43.4779 35.2823H36.0007C36.3146 29.1736 38.533 25.6296 39.7368 24.1422ZM35.9579 19.226C35.9579 18.4217 36.5226 17.7663 37.2183 17.7663H42.2603C42.9561 17.7663 43.5208 18.4217 43.5208 19.226V21.2155C42.3044 20.8813 41.0427 20.6857 39.7393 20.6857C38.436 20.6857 37.1742 20.8813 35.9579 21.2155V19.226ZM36.5994 24.0356C35.2205 26.3448 33.7243 30.0319 33.481 35.2823H26.411C27.7811 29.702 31.6899 25.3595 36.5994 24.0356ZM25.874 39.6613C25.874 39.168 25.9005 38.6834 25.9383 38.2017H53.5416C53.5782 38.6834 53.6046 39.168 53.6046 39.6613V46.9597H46.2321L42.7809 42.6566C41.9968 41.6801 40.8889 41.121 39.7393 41.121C38.5898 41.121 37.4818 41.6801 36.6978 42.6566L33.2478 46.9597H25.874V39.6613ZM13.2692 20.6857C13.965 20.6857 14.5297 21.3411 14.5297 22.1453C14.5297 22.9496 13.965 23.605 13.2692 23.605C12.5734 23.605 12.0087 22.9496 12.0087 22.1453C12.0087 21.3411 12.5734 20.6857 13.2692 20.6857ZM13.2692 32.363C16.0498 32.363 18.3111 34.9816 18.3111 38.2017H8.22724C8.22724 34.9816 10.4885 32.363 13.2692 32.363ZM8.22724 41.121H18.3111V46.9597H8.22724V41.121ZM5.43023 49.879H30.9058L23.8837 58.637H3.53951L5.43023 49.879ZM21.543 61.5563L19.2023 64.4757H18.3111V70.3143H20.8321V64.4757H23.353V73.2337H5.70628V61.5563H21.543ZM5.70628 76.153H23.353V87.8303H5.70628V76.153ZM56.1256 87.8303V76.153H73.7723V87.8303H56.1256ZM73.7723 73.2337H56.1256V64.4757H58.6466V70.3143H61.1675V64.4757H60.2764L57.9356 61.5563H73.7723V73.2337Z" fill="black" stroke="black" stroke-width="0.5"/>
<path d="M8.22724 64.4757H10.7482V70.3143H8.22724V64.4757Z" fill="black"/>
<path d="M13.2692 64.4757H15.7901V70.3143H13.2692V64.4757Z" fill="black"/>
<path d="M8.22724 79.0723H10.7482V84.911H8.22724V79.0723Z" fill="black"/>
<path d="M13.2692 79.0723H15.7901V84.911H13.2692V79.0723Z" fill="black"/>
<path d="M18.3111 79.0723H20.8321V84.911H18.3111V79.0723Z" fill="black"/>
<path d="M68.7304 64.4757H71.2514V70.3143H68.7304V64.4757Z" fill="black"/>
<path d="M63.6885 64.4757H66.2094V70.3143H63.6885V64.4757Z" fill="black"/>
<path d="M68.7304 79.0723H71.2514V84.911H68.7304V79.0723Z" fill="black"/>
<path d="M63.6885 79.0723H66.2094V84.911H63.6885V79.0723Z" fill="black"/>
<path d="M58.6466 79.0723H61.1675V84.911H58.6466V79.0723Z" fill="black"/>
</svg>
